<svg xmlns="http://www.w3.org/2000/svg" viewBox="0 0 32 32" fill="none">
  <defs>
    <linearGradient id="bg" x1="4" y1="2" x2="28" y2="30" gradientUnits="userSpaceOnUse">
      <stop stop-color="#6366F1"/>
      <stop offset="1" stop-color="#8B5CF6"/>
    </linearGradient>
    <linearGradient id="sheen" x1="8" y1="4" x2="16" y2="20" gradientUnits="userSpaceOnUse">
      <stop stop-color="#fff" stop-opacity=".28"/>
      <stop offset="1" stop-color="#fff" stop-opacity="0"/>
    </linearGradient>
  </defs>
  <!-- App tile -->
  <rect x="1" y="1" width="30" height="30" rx="8" fill="url(#bg)"/>
  <rect x="1" y="1" width="30" height="30" rx="8" fill="url(#sheen)"/>
  <!-- Pen tip / stroke mark -->
  <path
    d="M10.2 21.6c.4-.4 3.8-3.9 7.6-8.2.5-.6 1.3-.7 1.9-.3l1.1.8c.6.4.7 1.2.3 1.8-3.9 4.5-7.1 7.7-7.5 8.1-.5.5-1.2.5-1.7.1l-.9-.7c-.5-.4-.6-1.1-.8-1.6Z"
    fill="#fff"
    fill-opacity=".96"
  />
  <!-- Tip point -->
  <path d="M9.4 23.2l1.1-2.4 1.5 1.1-2.6 1.3Z" fill="#E0E7FF"/>
  <!-- Code spark -->
  <path d="M21.2 9.2l1.3 1.3-1.8 1.8-1.3-1.3 1.8-1.8Z" fill="#fff" fill-opacity=".9"/>
  <circle cx="23.4" cy="8.4" r="1.15" fill="#C4B5FD"/>
</svg>
